<?xml version="1.0" encoding="UTF-8" standalone="no"?>
<!-- Created with Inkscape (http://www.inkscape.org/) -->

<svg
   width="210mm"
   height="297mm"
   viewBox="0 0 210 297"
   version="1.1"
   id="svg1"
   xml:space="preserve"
   inkscape:version="1.3.2 (091e20e, 2023-11-25, custom)"
   sodipodi:docname="Logo Vector.svg"
   xmlns:inkscape="http://www.inkscape.org/namespaces/inkscape"
   xmlns:sodipodi="http://sodipodi.sourceforge.net/DTD/sodipodi-0.dtd"
   xmlns="http://www.w3.org/2000/svg"
   xmlns:svg="http://www.w3.org/2000/svg"><sodipodi:namedview
     id="namedview1"
     pagecolor="#505050"
     bordercolor="#eeeeee"
     borderopacity="1"
     inkscape:showpageshadow="0"
     inkscape:pageopacity="0"
     inkscape:pagecheckerboard="0"
     inkscape:deskcolor="#505050"
     inkscape:document-units="mm"
     inkscape:zoom="0.73139029"
     inkscape:cx="397.18876"
     inkscape:cy="605.01213"
     inkscape:window-width="1920"
     inkscape:window-height="1017"
     inkscape:window-x="1912"
     inkscape:window-y="-8"
     inkscape:window-maximized="1"
     inkscape:current-layer="layer1" /><defs
     id="defs1" /><g
     inkscape:label="Layer 1"
     inkscape:groupmode="layer"
     id="layer1"><path
       style="fill:#FFFFFF;fill-opacity:1"
       d="m 142.08095,213.2363 c -2.39907,-0.8578 -3.54014,-1.94365 -4.41016,-4.19669 -0.47978,-1.24245 -0.80497,-4.81581 -0.48525,-5.33224 0.15339,-0.24777 0.85978,-0.32048 2.57039,-0.26458 l 2.35887,0.0771 0.14571,2.05449 c 0.16744,2.36091 0.46991,2.81353 2.01905,3.02132 0.85852,0.11515 1.18648,0.0204 1.82234,-0.52656 0.69357,-0.59658 0.77511,-0.82995 0.77265,-2.21124 -0.004,-2.23721 -0.61011,-3.23543 -4.15071,-6.83592 -1.7172,-1.74625 -3.41128,-3.60245 -3.76463,-4.12488 -1.74739,-2.58359 -2.16837,-7.25865 -0.90325,-10.03077 0.83883,-1.83804 2.16468,-3.00941 4.01522,-3.54737 2.64958,-0.77026 5.93839,-0.31004 7.56492,1.0586 1.58281,1.33185 2.86847,4.69709 2.62213,6.86352 l -0.0893,0.78506 -2.4474,0.0761 -2.44739,0.0761 -10e-4,-0.86982 c -0.002,-1.34775 -0.49901,-2.82024 -1.05104,-3.11567 -0.6963,-0.37265 -2.19468,-0.33442 -2.74791,0.0701 -1.09932,0.80384 -1.02311,4.13932 0.13332,5.83513 0.3145,0.46119 1.90349,2.14821 3.53109,3.74894 4.28871,4.21789 5.3588,6.41623 5.08956,10.45572 -0.22497,3.3752 -1.44178,5.44899 -3.84201,6.54785 -1.94642,0.8911 -4.46113,1.04497 -6.30476,0.38577 z M 62.078354,197.31174 v -15.88458 h 6.75717 6.75718 l -0.0764,2.31511 -0.0765,2.3151 -4.0349,0.073 -4.03489,0.073 v 4.48262 4.48263 l 3.10885,0.0745 3.10885,0.0745 v 2.38125 2.38125 l -3.10416,0.0745 -3.10417,0.0745 -0.0708,6.40779 -0.0708,6.40779 -2.57969,0.0757 -2.57969,0.0757 z m 13.64482,15.63123 c -0.0796,-0.1288 -0.0397,-0.57529 0.0886,-0.99219 0.12833,-0.41689 0.37737,-1.94862 0.55343,-3.40383 0.17606,-1.4552 0.47857,-3.41973 0.67224,-4.36562 0.19367,-0.94589 0.48513,-2.73182 0.64769,-3.96875 0.16255,-1.23693 0.46054,-3.0824 0.66219,-4.10104 0.20165,-1.01865 0.49722,-2.86412 0.65681,-4.10104 0.15959,-1.23693 0.4601,-3.14193 0.66779,-4.23334 0.20769,-1.0914 0.51544,-2.96974 0.68389,-4.17408 l 0.30627,-2.1897 3.86819,0.073 3.86819,0.073 0.19692,1.32291 c 0.50797,3.4124 0.76183,5.04694 1.35606,8.73125 0.35206,2.18281 0.89452,5.63563 1.20548,7.67292 0.31095,2.03729 0.68198,4.29948 0.8245,5.02708 0.27416,1.39963 1.31777,8.23456 1.31777,8.63049 0,0.12818 -1.17417,0.23305 -2.60927,0.23305 h -2.60928 l -0.4776,-2.78637 -0.4776,-2.78638 -2.92329,0.0744 -2.92328,0.0744 -0.32517,2.51355 c -0.17884,1.38244 -0.33177,2.60284 -0.33984,2.71198 -0.0208,0.2818 -4.71562,0.24748 -4.89067,-0.0358 z m 10.61946,-10.81216 c -0.0789,-0.40018 -0.28482,-1.73964 -0.45751,-2.97656 -0.53413,-3.82596 -1.5609,-10.12149 -1.66828,-10.22887 -0.0561,-0.0561 -0.36594,1.89499 -0.68848,4.33581 -0.32254,2.44081 -0.68738,4.85457 -0.81076,5.36389 -0.12339,0.50932 -0.30501,1.67018 -0.40361,2.57969 l -0.17927,1.65364 h 2.17572 2.17572 z m 9.01887,6.35 c -0.0429,-2.583 -0.0433,-9.72675 -9.8e-4,-15.875 l 0.077,-11.17865 4.950116,0.001 c 5.49498,0.002 6.52107,0.18086 7.88336,1.37697 1.81557,1.59409 2.08285,2.48423 2.08868,6.95593 0.006,4.51655 -0.22783,5.50703 -1.63038,6.90957 l -0.92153,0.92153 1.04336,1.1319 c 1.4448,1.56743 1.86201,3.63964 1.96433,9.75638 l 0.0785,4.69647 -2.56407,-1.1e-4 c -1.74479,-8e-5 -2.6284,-0.1042 -2.76539,-0.32585 -0.11072,-0.17916 -0.26782,-2.75038 -0.34909,-5.71382 l -0.14778,-5.38808 -0.73961,-0.63618 c -0.58522,-0.50339 -1.04029,-0.63619 -2.18007,-0.63619 h -1.44045 v 6.35 6.35 h -2.634036 -2.63403 z m 8.969276,-13.66928 0.74236,-0.63855 v -3.48587 c 0,-3.34422 -0.0254,-3.50642 -0.62463,-3.99166 -0.45697,-0.37003 -1.04285,-0.50579 -2.18281,-0.50579 h -1.55819 v 4.63021 4.63021 h 1.44045 c 1.14126,0 1.59466,-0.13264 2.18282,-0.63855 z m 9.07673,2.50093 v -15.8853 h 3.66933 3.66933 l 0.1466,0.99219 c 0.0806,0.5457 0.4599,2.89719 0.84281,5.22552 0.38292,2.32834 0.92793,5.72162 1.21113,7.54063 0.2832,1.81901 0.67261,4.14073 0.86536,5.15937 l 0.35044,1.85209 0.29186,-1.32292 c 0.16052,-0.72761 0.42873,-2.45401 0.59602,-3.83646 0.16729,-1.38245 0.40734,-3.05366 0.53344,-3.7138 0.1261,-0.66014 0.53387,-3.33905 0.90616,-5.95312 0.37229,-2.61408 0.73929,-5.0241 0.81557,-5.35561 0.13708,-0.59578 0.18055,-0.60188 3.76979,-0.52916 l 3.63112,0.0736 v 15.7427 15.74271 h -2.51354 -2.51354 l -0.13229,-9.24523 c -0.14075,-9.83588 -0.14124,-9.83764 -1.03745,-3.71935 -0.46146,3.15029 -1.6322,10.79176 -1.82415,11.90625 l -0.18227,1.05833 -2.45129,0.0761 c -1.81469,0.0564 -2.48344,-0.0124 -2.57508,-0.26459 -0.0681,-0.18739 -0.30195,-1.47181 -0.51969,-2.85426 -0.37174,-2.36015 -1.10637,-6.80295 -2.18749,-13.22916 l -0.46738,-2.77813 -0.13229,9.525 -0.13229,9.525 -2.3151,0.0764 -2.31511,0.0764 z M 46.997104,177.67553 c -1.57231,-0.4488 -3.3362,-1.99667 -3.98673,-3.49847 -0.60786,-1.40328 -1.07714,-6.22741 -0.6089,-6.25932 1.44709,-0.0986 4.42433,-0.0893 4.58702,0.0144 0.11529,0.0735 0.25708,0.98803 0.3151,2.03237 0.13479,2.42627 0.57964,2.996 2.33934,2.996 1.53696,0 2.12617,-0.56599 2.31279,-2.22163 0.26145,-2.31964 -0.47718,-3.62056 -4.0716,-7.17108 -4.61057,-4.55427 -5.52351,-6.27041 -5.48925,-10.31875 0.017,-2.01359 0.13043,-2.61336 0.73438,-3.88458 1.35996,-2.86251 3.79784,-4.12237 7.44347,-3.84665 2.27868,0.17234 3.42343,0.6217 4.56172,1.79068 1.41388,1.45197 1.98391,2.93108 2.01863,5.23785 l 0.0305,2.02562 h -2.38125 -2.38125 l -0.16817,-1.45521 c -0.23016,-1.99172 -0.41893,-2.34666 -1.3814,-2.59746 -1.21761,-0.31728 -2.35956,-0.003 -2.74333,0.75567 -0.47343,0.93557 -0.41344,3.31793 0.112,4.44763 0.24712,0.53132 1.91363,2.45431 3.70336,4.27332 4.09613,4.16315 5.14132,5.94745 5.32309,9.08734 0.23935,4.13473 -0.93241,6.70836 -3.67924,8.08096 -1.43201,0.71558 -1.91061,0.82025 -3.65597,0.79951 -1.10454,-0.0131 -2.42498,-0.14281 -2.9343,-0.28819 z m 16.82253,-0.22087 c -1.65697,-0.647 -2.86497,-1.82015 -3.64193,-3.53683 -0.60921,-1.34606 -0.6129,-1.4203 -0.6129,-12.33442 v -10.9802 l 0.71062,-1.34674 c 1.44249,-2.73377 3.85494,-3.95429 7.45505,-3.77169 3.72556,0.18895 6.08647,2.0762 6.7895,5.42733 0.18659,0.88942 0.25874,5.00417 0.20646,11.77396 -0.0896,11.60128 -0.0244,11.17301 -2.01697,13.25269 -1.8819,1.96419 -5.96058,2.65969 -8.88983,1.5159 z m 5.07174,-5.17009 c 0.5951,-0.67626 0.59531,-0.67998 0.58943,-10.64976 -0.006,-9.30776 -0.0387,-10.01594 -0.49743,-10.61268 -0.67664,-0.8802 -2.69157,-0.91355 -3.54629,-0.0587 -0.57755,0.57765 -0.58061,0.63407 -0.58061,10.71916 0,10.83464 -0.0111,10.73911 1.31373,11.30076 0.84261,0.35721 2.06905,0.0423 2.72117,-0.69877 z m 8.923,5.11847 c -0.0718,-0.18783 -0.0997,-7.36619 -0.062,-15.95192 l 0.0687,-15.61041 3.41888,-0.0744 c 2.49304,-0.0542 3.47348,0.014 3.62055,0.25193 0.11092,0.17947 0.27522,0.92732 0.36511,1.66189 0.0899,0.73456 0.27708,1.87135 0.41596,2.52619 0.13888,0.65484 0.50615,2.79797 0.81615,4.7625 0.80849,5.12355 0.94642,6.00015 1.26972,8.06979 0.61411,3.93116 0.66309,3.98219 1.1428,1.19063 0.47261,-2.7502 1.00959,-6.37187 1.77332,-11.9601 0.27254,-1.99415 0.64405,-4.28942 0.82558,-5.10061 l 0.33007,-1.47488 3.46197,0.0735 3.46198,0.0735 v 15.875 15.875 h -2.38125 -2.38125 l -0.13229,-9.26042 c -0.0728,-5.09323 -0.21671,-8.96276 -0.31988,-8.59896 -0.10316,0.3638 -0.44397,2.4474 -0.75735,4.63021 -0.31338,2.18281 -0.67588,4.62359 -0.80556,5.42396 -0.12969,0.80036 -0.35497,2.34817 -0.50064,3.43958 -0.14567,1.09141 -0.35662,2.52016 -0.46879,3.175 l -0.20395,1.19063 -2.44514,0.0761 c -1.81699,0.0566 -2.47202,-0.0114 -2.54978,-0.26458 -0.0576,-0.1874 -0.4227,-2.24572 -0.81143,-4.57405 -0.38874,-2.32834 -0.98716,-5.84068 -1.32983,-7.80521 -0.34268,-1.96453 -0.71966,-4.34578 -0.83775,-5.29167 -0.14942,-1.19693 -0.25492,1.25651 -0.34699,8.06979 l -0.13229,9.78959 -2.18698,0.0769 c -1.59994,0.0563 -2.22205,-0.0147 -2.31761,-0.26458 z m 24.392576,-0.0571 c -0.0814,-0.21221 -0.1247,-7.38771 -0.0961,-15.94555 l 0.0519,-15.55971 h 6.87917 6.87916 l 0.0764,2.3085 0.0764,2.3085 -4.29688,0.0728 -4.29688,0.0727 0.076,4.09676 c 0.0418,2.25321 0.13234,4.18798 0.20125,4.29947 0.0689,0.1115 1.54701,0.20272 3.28467,0.20272 h 3.15938 v 2.38125 2.38125 h -3.47265 -3.47266 l 0.16537,0.82683 c 0.091,0.45475 0.16536,2.41928 0.16536,4.36562 v 3.5388 l 3.9026,0.004 c 2.14644,0.002 4.05657,0.10172 4.24474,0.2211 0.24627,0.15623 0.3204,0.84085 0.26458,2.44334 l -0.0776,2.2263 -6.78302,0.0705 c -5.74447,0.0598 -6.80569,0.0115 -6.93108,-0.31529 z m 16.62446,0.0743 c -0.0755,-0.19732 -0.10635,-7.38344 -0.0686,-15.96917 l 0.0686,-15.61041 4.23333,-0.0803 c 6.18089,-0.11715 8.18938,0.42606 9.83996,2.6613 1.34558,1.8222 1.43474,2.73768 1.35042,13.86503 -0.0744,9.8158 -0.10297,10.33107 -0.63723,11.48594 -0.7029,1.51941 -2.16858,2.95971 -3.46805,3.40801 -1.49636,0.51621 -11.1346,0.7202 -11.31849,0.23955 z m 9.63815,-5.42152 c 0.5319,-0.6762 0.54837,-0.98563 0.54837,-10.30399 v -9.60686 l -0.63854,-0.74236 c -0.58384,-0.67876 -0.79349,-0.74235 -2.44739,-0.74235 h -1.80886 l -0.0691,11.04635 -0.0691,11.04635 h 1.96807 c 1.81101,0 2.01184,-0.0556 2.51645,-0.69714 z m 7.5072,5.28563 c -0.0926,-0.24123 -0.0314,-1.10444 0.136,-1.91823 0.16737,-0.8138 0.602,-3.38463 0.96584,-5.71296 0.68151,-4.36116 1.52751,-9.64915 2.68791,-16.80105 0.36597,-2.25557 0.7328,-4.57729 0.81517,-5.15937 0.28998,-2.04914 0.19921,-2.00798 4.24642,-1.92561 l 3.61282,0.0735 0.46621,2.77812 c 0.92543,5.51459 1.56689,9.49803 2.47116,15.34583 0.5063,3.27422 1.10185,6.91063 1.32345,8.0809 0.2216,1.17028 0.47748,2.92645 0.56864,3.90261 l 0.16573,1.77483 h -2.52094 c -2.91975,0 -2.67366,0.26433 -3.2022,-3.43959 l -0.32092,-2.24895 -2.92254,-0.0744 -2.92255,-0.0744 -0.33521,2.56222 c -0.18437,1.40921 -0.39677,2.7226 -0.472,2.91864 -0.0997,0.25982 -0.74093,0.35643 -2.36572,0.35643 -1.83146,0 -2.25897,-0.0782 -2.39727,-0.4386 z m 10.50367,-10.51008 c 0,-0.34646 -0.24665,-2.2217 -0.54812,-4.16719 -0.30146,-1.94549 -0.76527,-4.96601 -1.03069,-6.71226 -0.26541,-1.74625 -0.49929,-3.05594 -0.51974,-2.91041 -0.51552,3.66995 -1.76135,12.05743 -2.0141,13.55989 l -0.14466,0.8599 h 2.12865 c 2.06577,0 2.12866,-0.0186 2.12866,-0.62993 z m 13.94394,10.78151 c -0.10208,-0.10209 -0.18562,-2.45772 -0.18564,-5.23474 l -4e-5,-5.04913 -1.06314,-3.57188 c -0.58473,-1.96453 -1.35093,-4.52437 -1.70267,-5.68854 -0.35174,-1.16417 -0.95436,-3.18823 -1.33916,-4.49792 -0.3848,-1.30969 -0.87924,-2.91703 -1.09875,-3.57187 -0.6038,-1.80123 -1.09057,-3.93619 -0.93332,-4.09345 0.30761,-0.30761 5.01605,-0.13728 5.27543,0.19084 0.1438,0.1819 0.45363,1.16417 0.68852,2.18282 0.23489,1.01864 0.84853,3.39989 1.36366,5.29166 0.51512,1.89177 1.072,4.0349 1.23751,4.7625 0.29759,1.30833 0.30345,1.31417 0.53075,0.52917 0.54971,-1.89838 1.86918,-6.82545 2.47994,-9.26042 1.03147,-4.11222 0.7851,-3.83646 3.42747,-3.83646 1.72242,0 2.29776,0.0907 2.40871,0.37988 0.0802,0.20893 -0.0932,1.13167 -0.38535,2.05052 -0.29212,0.91886 -0.83457,2.68268 -1.20545,3.9196 -0.37087,1.23693 -0.92504,3.0824 -1.23148,4.10105 -0.30645,1.01864 -0.77658,2.62599 -1.04474,3.57187 -0.55798,1.9682 -1.22514,4.20932 -1.65403,5.55625 -0.16218,0.50932 -0.36228,3.48589 -0.44467,6.61458 l -0.14978,5.68855 -2.39408,0.0754 c -1.31674,0.0415 -2.4776,-0.008 -2.57969,-0.11024 z M 83.007504,135.93117 c -1.76149,-0.15051 -2.38799,-0.58169 -2.06567,-1.42166 0.0893,-0.23261 0.86836,-0.77934 1.73134,-1.21497 1.75496,-0.8859 3.59957,-2.8024 3.32125,-3.4507 -1.22767,-2.85969 -1.12067,-3.71618 0.97988,-7.8432 1.84537,-3.62567 1.92747,-4.37865 0.50404,-4.62315 -5.40402,-0.92822 -7.14603,-6.15585 -3.26356,-9.79372 1.5755,-1.47624 2.43688,-1.97853 4.71966,-2.75212 1.7873,-0.60567 2.40332,-0.69421 3.96786,-0.57027 2.86306,0.2268 5.43805,1.29322 7.339426,3.03958 0.39866,0.36617 0.76753,0.6149 0.81971,0.55275 0.11264,-0.13419 1.49815,-4.34008 1.49815,-4.54785 0,-0.0789 -0.74414,-0.22527 -1.65364,-0.32533 -4.916176,-0.54087 -8.963886,-1.93368 -10.326836,-3.553463 -3.71904,-4.41983 1.95611,-11.398332 11.691796,-14.376946 2.71814,-0.831609 2.94514,-0.857285 7.56473,-0.855648 4.17887,0.0015 5.02077,0.07625 6.87004,0.610145 6.75355,1.949788 11.85854,5.68312 13.20858,9.659559 1.36997,4.03514 -0.89395,6.505343 -7.19939,7.855373 -1.41855,0.30372 -3.587,0.63569 -4.81879,0.73773 l -2.23961,0.18551 -0.083,1.15738 c -0.0815,1.13754 -0.0707,1.15432 0.62889,0.97872 1.19003,-0.29867 6.54079,-0.20655 7.9344,0.13661 3.48036,0.857 6.30468,2.69401 7.25221,4.71701 0.60748,1.297 0.61226,1.36112 0.17376,2.33136 -0.65481,1.44883 -1.99869,2.21507 -4.45335,2.53915 -2.01583,0.26614 -2.06023,0.28798 -2.06023,1.01355 0,0.99996 0.66437,2.62411 1.98529,4.8533 2.32492,3.92356 2.52596,4.76601 1.72893,7.24479 -0.53527,1.66466 -0.55144,1.88536 -0.18903,2.57948 0.55383,1.06076 1.8546,2.23957 3.16713,2.87019 1.28224,0.61608 1.58441,1.45772 0.73656,2.05158 -0.45693,0.32005 -4.12476,0.37601 -24.15828,0.36862 -12.990756,-0.005 -24.381276,-0.0738 -25.312276,-0.15336 z m 17.012676,-3.78265 c -0.858886,-0.90951 -1.621156,-1.64715 -1.693916,-1.63921 -0.0728,0.008 -0.7276,0.29506 -1.45521,0.63803 -1.09858,0.51785 -1.77159,0.62756 -3.96875,0.64702 -1.45521,0.0129 -3.1367,-0.0649 -3.73664,-0.17275 -1.05823,-0.19032 -1.11158,-0.1648 -1.78594,0.85422 -0.38232,0.57772 -0.69513,1.11249 -0.69513,1.18837 0,0.0759 3.35188,0.13796 7.44861,0.13796 h 7.448606 z m 27.27337,0.92604 c -0.99502,-1.67832 -0.99214,-1.67672 -2.50819,-1.38921 -0.76775,0.1456 -2.12703,0.26473 -3.02062,0.26473 -1.42881,0 -1.72753,0.0939 -2.47743,0.77884 -0.46899,0.42836 -0.85271,0.84507 -0.85271,0.92604 0,0.081 2.09032,0.1472 4.64516,0.1472 h 4.64517 z m -19.44749,0 c -0.003,-0.25466 -0.17731,-1.41552 -0.38765,-2.57969 -0.57487,-3.18171 -0.52648,-4.51224 0.18214,-5.00858 0.49657,-0.34781 0.66335,-0.35521 1.12448,-0.0499 0.42905,0.28402 0.57751,0.75594 0.71518,2.27332 0.21665,2.3879 0.75676,5.30151 0.9807,5.29033 0.86776,-0.0433 2.08664,-2.39698 2.33728,-4.51328 0.17027,-1.43766 0.47074,-1.72228 1.53596,-1.45492 0.60401,0.15159 0.66086,0.29038 0.66086,1.61319 0,0.80093 -0.23353,2.06193 -0.52289,2.82346 -0.28758,0.75687 -0.46993,1.42909 -0.40521,1.49381 0.0647,0.0647 0.79027,-0.22262 1.61232,-0.63854 2.00432,-1.01409 3.63924,-2.91081 4.18469,-4.85478 0.81677,-2.91094 0.42443,-4.42237 -2.13747,-8.23422 -3.97216,-5.91019 -4.33418,-6.86813 -4.5188,-11.95703 l -0.14159,-3.90261 h -4.04478 c -3.62313,0 -4.05918,0.0483 -4.18297,0.46302 -0.076,0.25466 -0.69479,2.30849 -1.37507,4.56406 -0.68028,2.25558 -1.39224,4.69636 -1.58213,5.42396 -0.1899,0.72761 -0.78465,2.98979 -1.32168,5.02709 -1.311116,4.97396 -1.384646,7.52693 -0.27958,9.70781 0.74037,1.46113 2.13519,3.09264 2.40948,2.81835 0.0744,-0.0744 0.0264,-0.71788 -0.10662,-1.42998 -0.2857,-1.52927 -0.008,-2.23264 0.87984,-2.23264 0.79001,0 1.09895,0.39958 1.32967,1.71979 0.10173,0.58208 0.4634,1.67368 0.80372,2.42578 0.58931,1.30238 0.70368,1.39352 2.05689,1.63923 0.10914,0.0198 0.19609,-0.17233 0.19323,-0.42699 z m -12.675146,-3.77139 c 0.52013,-0.14448 1.22108,-0.55584 1.55767,-0.91412 0.7741,-0.824 0.65324,-1.75857 -0.53281,-4.12005 -0.47282,-0.9414 -1.12618,-2.24741 -1.45192,-2.90225 -0.8291,-1.66676 -1.18009,-3.59012 -1.18009,-6.46663 0,-2.43765 -0.01,-2.47421 -0.68396,-2.6435 -1.51741,-0.38085 -1.6164,-0.18068 -1.75076,3.54009 l -0.12321,3.41227 -1.79565,3.57931 c -1.52559,3.041 -1.77017,3.71509 -1.62628,4.48214 0.19352,1.03151 0.8251,1.69928 1.91654,2.02635 1.05863,0.31725 4.53735,0.32117 5.67047,0.006 z m 29.878266,-0.10736 c 1.144,-0.41109 1.57912,-1.21835 1.58163,-2.93427 0.002,-1.09515 -0.20938,-1.68734 -1.22544,-3.43958 -1.72456,-2.97412 -2.47252,-4.53945 -2.63343,-5.51131 -0.3632,-2.19355 -0.16167,-2.02932 -2.4903,-2.02932 -2.44147,0 -2.50206,0.0949 -1.18214,1.85208 3.14038,4.1807 4.19219,7.69054 3.17155,10.58334 -0.60546,1.71605 -0.55034,1.85483 0.72761,1.83195 0.61846,-0.0111 1.5412,-0.16987 2.05052,-0.35289 z M 98.069434,119.099 c 0.52014,-1.64555 0.26706,-1.94441 -1.29293,-1.52681 -0.53023,0.14194 -0.60337,0.29235 -0.48796,1.00352 0.0747,0.46011 0.33886,1.30608 0.5871,1.87994 l 0.45135,1.04339 0.24281,-0.79375 c 0.13354,-0.43656 0.35837,-1.15939 0.49963,-1.60629 z m 0.41478,-4.4728 c 0.71591,-0.29912 0.91891,-0.59608 1.29731,-1.89776 0.428446,-1.47381 0.426636,-1.58396 -0.0403,-2.4516 -0.53048,-0.9857 -2.06098,-2.21671 -3.53162,-2.84056 -3.94937,-1.67534 -8.97516,-0.41317 -11.19186,2.81069 -1.10209,1.60284 -0.1706,3.81146 1.895,4.49317 1.37501,0.45379 1.94882,0.23112 1.8401,-0.71408 -0.0653,-0.56751 -0.24083,-0.74724 -0.7921,-0.81096 -1.65089,-0.19079 -1.66537,-1.8526 -0.0218,-2.49868 0.54703,-0.21504 1.78996,-0.54625 2.76206,-0.73602 1.53884,-0.30042 2.02879,-0.28764 3.78761,0.0988 2.61198,0.57394 3.57305,1.0712 3.57305,1.84869 0,0.76904 -0.47028,1.23674 -1.24354,1.23674 -0.53625,0 -0.60854,0.12913 -0.60854,1.08702 0,1.0483 0.0254,1.08064 0.71295,0.90808 0.39212,-0.0984 1.09487,-0.33852 1.56166,-0.53356 z m 29.706486,-2.14047 c 1.32573,-0.53045 1.44627,-1.28044 0.36421,-2.26608 -2.10718,-1.91941 -4.76391,-2.74581 -8.7974,-2.73652 -3.96858,0.009 -4.35762,0.20323 -4.15123,2.07111 0.0827,0.74881 0.36137,1.88549 0.61918,2.52596 l 0.46876,1.16449 5.20233,-0.16105 c 3.9203,-0.12137 5.4714,-0.26871 6.29415,-0.59791 z m -12.40194,-11.75525 c 8.70912,-0.639 12.56357,-2.190433 12.06358,-4.855633 -0.41236,-2.198058 -3.36407,-5.115701 -6.95804,-6.877726 -0.84351,-0.413553 -1.72331,-0.849362 -1.9551,-0.968463 -0.2318,-0.119102 -1.72008,-0.53658 -3.3073,-0.927729 -2.61068,-0.64337 -3.22642,-0.699339 -6.45772,-0.586983 -2.54152,0.08837 -4.22061,0.296649 -5.82083,0.722027 -3.473226,0.923271 -7.307416,3.097657 -9.724656,5.514895 l -0.66583,0.665831 0.57459,0.465277 c 0.7495,0.606911 2.67799,1.143541 6.11173,1.700671 2.121736,0.34426 4.622226,0.45851 10.583326,0.48358 4.29287,0.018 7.95404,0.12913 8.13594,0.24686 0.5272,0.34121 0.38384,1.19416 -0.27306,1.62458 -0.891,0.5838 -8.99623,0.82823 -14.34517,0.4326 -5.039686,-0.37275 -7.622806,-0.81732 -10.043786,-1.72858 -2.13917,-0.80518 -1.99475,-0.79204 -1.99475,-0.18146 0,1.5443 2.71511,3.01975 6.87916,3.738303 4.087176,0.70527 11.648096,0.93914 17.197916,0.53195 z m 4.9358,-3.660093 c -0.78307,-0.86528 -0.37361,-1.89739 0.75274,-1.89739 1.11421,0 1.57401,1.16632 0.77486,1.96547 -0.54512,0.54512 -0.99063,0.52526 -1.5276,-0.0681 z"
       id="path1" /></g></svg>
